# xmcd
#
# Track frame offsets: 
#        150
#        12662
#        21400
#        31645
#        41235
#        50980
#        65227
#        76800
#        88250
#        97750
#        109067
#        118742
#        130792
#        139755
#        153732
#        164902
#        176492
#        189795
#        204675
#        219852
#        235437
#        251440
#        262952
#        275827
#
# Disc length: 3842 seconds
#
# Revision: 4
# Processed by: cddbd v1.5.2PL0 Copyright (c) Steve Scherf et al.
# Submitted via: ExactAudioCopy v0.99pb5
#
DISCID=630f0018
DTITLE=Marty Robbins - Country 1960-1966 - Disc 4 of 4
DYEAR=1963
DGENRE=Country
TTITLE0=Cigarettes And Coffee Blues (1963  Columbia Single 4-42701)
TTITLE1=No Tears Milady (1966  Columbia Single 4-43845)
TTITLE2=The Wine Flowed Freely (1962  CS 8718)
TTITLE3=The Shoe Goes On The Other Foot Tonight (Recorded 1965 - Relea
TTITLE3=sed 1966  Columbia Single 4-43500)
TTITLE4=Not So Long Ago (1963  Columbia Single 4-42831)
TTITLE5=I Hope You Learn A Lot (1963  Columbia Single 4-42831)
TTITLE6=Count Me Out (1965  Columbia Single 4-43500)
TTITLE7=Begging To You (1963  Columbia Single 4-42890)
TTITLE8=In The Ashes Of An Old Love Affair (1962  CS 8718)
TTITLE9=Love Is A Hurting Thing (1962  CS 8718)
TTITLE10=Worried (1962  CS 8718)
TTITLE11=Time Can't Make Me Forget (1962  CS 8718)
TTITLE12=Baby Talk To Me (Recorded 1963 - Released 1984  KC2 39575)
TTITLE13=Pieces Of Your Heart (Recorded 1963 - Released 1995 BCD 15655
TTITLE13=4)
TTITLE14=Over High Mountain (Recorded 1963 - Released 1995 BCD 15655-4
TTITLE14=)
TTITLE15=It Kinda Reminds Me Of Me (1966  Take 2 Columbia Single 4-436
TTITLE15=80)
TTITLE16=My Own Native Land (1966  Columbia Single 4-43651)
TTITLE17=Private Wilson White (Recorded 1965 - Released 1966  Columbia
TTITLE17=Single 4-43500)
TTITLE18=Ain't I Right (1966  Columbia Single 4-43651)
TTITLE19=You Gave Me A Mountain (Recorded 1966 - Released 1971  C 3057
TTITLE19=1)
TTITLE20=To Be In Love With Her (Recorded 1966 - Released 1984  KC2 39
TTITLE20=575)
TTITLE21=Matilda (1965  Columbia Single 4-43377)
TTITLE22=It Finally Happened (Recorded 1964 - Released 1984  KC2 39575
TTITLE22=)
TTITLE23=They'll Never Take Her Love From Me (Recorded 1965 - Released
TTITLE23=1995  BCD 15655-4)
EXTD=Country 1960-1966 - Disc 4 of 4\n© 1995 Bear Family Records\n\nUP
EXTD=C: 4000127156556\nCat Number: BCD 15655 DI\n\nOriginally Released
EXTD=October 17, 1995\n\nAMG EXPERT REVIEW: Cutting away all of Marty
EXTD=Robbins' rock and roll, Hawaiian and cowboy recordings, Bear Famil
EXTD=y's four-disc box set Country (1960-1966) contains nothing but hi
EXTD=s straight country and country-pop recordings of the early '60s. 
EXTD=During that era, Robbins was one of the most popular performers i
EXTD=n country music, scoring an impressive series of Top 10 hits and 
EXTD=pop crossovers like "Don't Worry" and "Devil Woman," which are al
EXTD=l included on this set. Where many Bear Family sets are so thorou
EXTD=gh and complete, they merely wind up being exhausting, Country (1
EXTD=960-1966) is entertaining from start to finish, since it is seque
EXTD=nced in a logical, listenable order and doesn't dwell on the rari
EXTD=ties. Any serious fan of Robbins will find the set an essential a
EXTD=ddition to their library, and it is arguably the finest Robbins b
EXTD=ox Bear Family has released. -- Stephen Thomas Erlewine\n\nHalf.c
EXTD=om Album Notes\nRecorded between 1960 and 1966. Includes liner no
EXTD=tes by Colin Escott.
EXTT0=
EXTT1=
EXTT2=
EXTT3=
EXTT4=
EXTT5=
EXTT6=
EXTT7=
EXTT8=
EXTT9=
EXTT10=
EXTT11=
EXTT12=
EXTT13=
EXTT14=
EXTT15=
EXTT16=
EXTT17=
EXTT18=
EXTT19=
EXTT20=
EXTT21=
EXTT22=
EXTT23=
PLAYORDER=
